<?xml version="1.0" encoding="utf-8"?>
<!-- Generator: Adobe Illustrator 22.1.0, SVG Export Plug-In . SVG Version: 6.00 Build 0)  -->
<svg version="1.1" id="Layer_1" xmlns="http://www.w3.org/2000/svg" xmlns:xlink="http://www.w3.org/1999/xlink" x="0px" y="0px"
	 viewBox="0 0 512 512" style="enable-background:new 0 0 512 512;" xml:space="preserve">
<style type="text/css">
	.st0{fill:none;stroke:#000000;stroke-miterlimit:10;}
	.st1{fill:none;}
	.st2{font-family:'Arial-Black';}
	.st3{font-size:38.3533px;}
	.st4{fill:#D83939;}
	.st5{font-family:'Arial-BoldMT';}
	.st6{font-size:19px;}
	.st7{fill:#FFFFFF;}
	.st8{font-size:25px;}
	.st9{fill-rule:evenodd;clip-rule:evenodd;fill:none;}
	.st10{font-family:'Arial-BoldItalicMT';}
	.st11{font-size:16px;}
</style>
<g>
	<path d="M14,81V389h315V81H14z M319.6,379.8l-97.5-0.2l-1.3-96.8h-98.7v96.8l-98.7,0.2V90.2l64.8,0.2l35.2-0.1v96.3l98.1-0.6V90.4
		l19.1-0.2h79V379.8z"/>
</g>
<g>
	<rect x="23.4" y="89.8" class="st0" width="296.1" height="289.2"/>
	<line class="st0" x1="23.4" y1="330.8" x2="319.6" y2="330.8"/>
	<line class="st0" x1="23.4" y1="282.6" x2="319.6" y2="282.6"/>
	<line class="st0" x1="23.4" y1="234.4" x2="319.6" y2="234.4"/>
	<line class="st0" x1="23.4" y1="186.2" x2="319.6" y2="186.2"/>
	<line class="st0" x1="23.4" y1="138" x2="319.6" y2="138"/>
	<line class="st0" x1="270.2" y1="89.8" x2="270.2" y2="379"/>
	<line class="st0" x1="220.9" y1="89.8" x2="220.9" y2="379"/>
	<line class="st0" x1="171.5" y1="89.8" x2="171.5" y2="379"/>
	<line class="st0" x1="123.4" y1="89.8" x2="122.1" y2="379"/>
	<line class="st0" x1="72.8" y1="89.8" x2="72.8" y2="379"/>
</g>
<rect x="130.4" y="197.6" class="st1" width="38.7" height="30.2"/>
<text transform="matrix(1 0 0 1 135.8604 225.1089)" class="st2 st3">S</text>
<rect x="227.4" y="149.6" class="st1" width="38.7" height="30.2"/>
<text transform="matrix(1 0 0 1 231.793 177.1089)" class="st2 st3">D</text>
<rect x="27.4" y="149.6" class="st1" width="38.7" height="30.2"/>
<text transform="matrix(1 0 0 1 31.793 177.1089)" class="st2 st3">B</text>
<rect x="27.4" y="245.6" class="st1" width="38.7" height="30.2"/>
<text transform="matrix(1 0 0 1 31.793 273.1089)" class="st2 st3">C</text>
<rect x="29.4" y="196.6" class="st1" width="38.7" height="30.2"/>
<text transform="matrix(1 0 0 1 33.793 224.1089)" class="st2 st3">A</text>
<rect x="388.4" y="89.6" class="st1" width="109.6" height="22.4"/>
<text transform="matrix(1 0 0 1 388.376 103.2524)" class="st4 st5 st6">S = Seed</text>
<g>
	<rect x="405.5" y="170.5" class="st7" width="44" height="145"/>
	<path d="M449,171v144h-43V171H449 M450,170h-45v146h45V170L450,170z"/>
</g>
<g>
	<line class="st0" x1="405" y1="282.5" x2="450" y2="282.5"/>
</g>
<g>
	<line class="st0" x1="405" y1="255.5" x2="450" y2="255.5"/>
</g>
<g>
	<line class="st0" x1="405" y1="228.5" x2="450" y2="228.5"/>
</g>
<g>
	<line class="st0" x1="405" y1="201.5" x2="450" y2="201.5"/>
</g>
<rect x="409.4" y="286.6" class="st1" width="34.6" height="21.4"/>
<text transform="matrix(1 0 0 1 417.6611 304.5483)" class="st5 st8">A</text>
<rect x="409.4" y="258.6" class="st1" width="34.6" height="21.4"/>
<text transform="matrix(1 0 0 1 417.6611 276.5483)" class="st5 st8">B</text>
<rect x="410.4" y="232.6" class="st1" width="34.6" height="21.4"/>
<text transform="matrix(1 0 0 1 418.6611 250.5483)" class="st5 st8">C</text>
<rect x="409.4" y="204.6" class="st1" width="34.6" height="21.4"/>
<text transform="matrix(1 0 0 1 417.6611 222.5483)" class="st5 st8">D</text>
<rect x="369.3" y="130.3" class="st9" width="123.7" height="39.7"/>
<text transform="matrix(1 0 0 1 372.9199 141.7891)"><tspan x="0" y="0" class="st10 st11">Stack after first </tspan><tspan x="45.4" y="19.2" class="st10 st11">run</tspan></text>
</svg>
